<?xml version="1.0" encoding="UTF-8" standalone="no"?>
<svg
   width="24"
   height="24"
   viewBox="0 0 24 24"
   fill="none"
   stroke="currentColor"
   stroke-width="2"
   stroke-linecap="round"
   stroke-linejoin="round"
   class="lucide lucide-sparkles-icon lucide-sparkles"
   version="1.1"
   id="svg5"
   sodipodi:docname="ia.svg"
   inkscape:version="1.4 (e7c3feb100, 2024-10-09)"
   inkscape:export-filename="ia.svg"
   inkscape:export-xdpi="96"
   inkscape:export-ydpi="96"
   xmlns:inkscape="http://www.inkscape.org/namespaces/inkscape"
   xmlns:sodipodi="http://sodipodi.sourceforge.net/DTD/sodipodi-0.dtd"
   xmlns="http://www.w3.org/2000/svg"
   xmlns:svg="http://www.w3.org/2000/svg">
  <defs
     id="defs5" />
  <sodipodi:namedview
     id="namedview5"
     pagecolor="#ffffff"
     bordercolor="#000000"
     borderopacity="0.25"
     inkscape:showpageshadow="2"
     inkscape:pageopacity="0.0"
     inkscape:pagecheckerboard="0"
     inkscape:deskcolor="#d1d1d1"
     inkscape:zoom="48.333333"
     inkscape:cx="12.010345"
     inkscape:cy="19.448276"
     inkscape:window-width="1771"
     inkscape:window-height="776"
     inkscape:window-x="0"
     inkscape:window-y="0"
     inkscape:window-maximized="1"
     inkscape:current-layer="svg5">
    <inkscape:page
       x="0"
       y="0"
       width="24"
       height="24"
       id="page2"
       margin="0"
       bleed="0" />
  </sodipodi:namedview>
  <path
     d="M 9.937,15.5 A 2,2 0 0 0 8.5,14.063 L 2.365,12.481 a 0.5,0.5 0 0 1 0,-0.962 L 8.5,9.936 A 2,2 0 0 0 9.937,8.5 l 1.582,-6.135 a 0.5,0.5 0 0 1 0.963,0 L 14.063,8.5 A 2,2 0 0 0 15.5,9.937 l 6.135,1.581 a 0.5,0.5 0 0 1 0,0.964 L 15.5,14.063 A 2,2 0 0 0 14.063,15.5 l -1.582,6.135 a 0.5,0.5 0 0 1 -0.963,0 z"
     id="path1"
     inkscape:label="path1"
     style="fill:none;stroke:#ffffff" />
  <path
     d="M 20,3 V 7"
     id="path2"
     style="stroke:#ffffff" />
  <path
     d="M 22,5 H 18"
     id="path3"
     style="stroke:#ffffff" />
  <path
     d="m 4,17 v 2"
     id="path4"
     style="stroke:#ffffff" />
  <path
     d="M 5,18 H 3"
     id="path5"
     style="stroke:#ffffff" />
</svg>
